<?xml version="1.0" encoding="utf-8"?>
<!-- Generator: Adobe Illustrator 16.0.0, SVG Export Plug-In . SVG Version: 6.00 Build 0)  -->
<!DOCTYPE svg PUBLIC "-//W3C//DTD SVG 1.1//EN" "http://www.w3.org/Graphics/SVG/1.1/DTD/svg11.dtd">
<svg version="1.1" xmlns="http://www.w3.org/2000/svg" xmlns:xlink="http://www.w3.org/1999/xlink" x="0px" y="0px" width="150px"
	 height="150px" viewBox="0 0 150 150" enable-background="new 0 0 150 150" xml:space="preserve">
<g id="Layer_2">
	<g>
		<g>
			<g>
				<path id="SVGID_6_" fill="#00FF00" d="M62.611,5.583L6.438,38.006c-2.104,1.213-3.396,3.453-3.396,5.874v64.892
					c0,2.422,1.291,4.66,3.396,5.875l56.177,32.447c2.1,1.209,4.689,1.209,6.787,0l56.168-32.447
					c2.094-1.215,3.387-3.453,3.387-5.875V43.88c0-2.421-1.293-4.661-3.398-5.874L69.396,5.583
					c-1.053-0.604-2.227-0.906-3.398-0.906s-2.348,0.302-3.399,0.906"/>
			</g>
		</g>
		<g>
			<path id="SVGID_4_" fill="#00FF00" d="M4.436,112.891c0.538,0.697,1.209,1.303,2,1.756l48.188,27.832l8.026,4.613
				c1.2,0.693,2.567,0.987,3.912,0.887c0.448-0.035,0.896-0.119,1.334-0.244L127.14,39.256c-0.453-0.493-0.983-0.906-1.578-1.253
				L88.78,16.763L69.336,5.575c-0.551-0.32-1.15-0.547-1.76-0.707L4.436,112.891z"/>
		</g>
		<g>
			<path id="SVGID_2_" fill="#00FF00" d="M65.326,4.714c-0.943,0.093-1.865,0.387-2.714,0.869L6.6,37.912L67,147.926
				c0.84-0.12,1.666-0.4,2.412-0.832l56.174-32.447c1.731-1.007,2.92-2.707,3.279-4.636L67.293,4.824
				c-0.453-0.089-0.906-0.136-1.375-0.136c-0.188,0-0.375,0.009-0.561,0.026"/>
		</g>
	</g>
</g>
<g id="Layer_1">
	<g opacity="0.5">
		<g>
			<path id="SVGID_1_" fill="#FF00FF" d="M72.299,4.452L16.126,36.875c-2.104,1.213-3.395,3.453-3.395,5.874v64.892
				c0,2.422,1.291,4.66,3.395,5.875l56.177,32.447c2.1,1.209,4.689,1.209,6.787,0l56.168-32.447
				c2.094-1.215,3.387-3.453,3.387-5.875V42.749c0-2.421-1.293-4.661-3.398-5.874L79.084,4.452
				c-1.053-0.604-2.227-0.906-3.398-0.906c-1.172,0-2.348,0.302-3.399,0.906"/>
		</g>
	</g>
	<g opacity="0.5">
		<g>
			<path id="SVGID_3_" fill="#FF00FF" d="M14.123,111.76c0.538,0.697,1.209,1.303,2,1.756l48.187,27.832l8.027,4.613
				c1.2,0.693,2.568,0.987,3.912,0.887c0.448-0.035,0.896-0.119,1.334-0.244l59.244-108.479c-0.453-0.493-0.983-0.906-1.578-1.253
				l-36.781-21.24L79.023,4.444c-0.551-0.32-1.15-0.547-1.76-0.707L14.123,111.76z"/>
		</g>
		<g>
			<g>
				<defs>
					<path id="SVGID_7_" d="M-142.489-216.272c0.538,0.697,1.209,1.302,2,1.755l48.188,27.833l8.027,4.613
						c1.2,0.693,2.568,0.987,3.912,0.887c0.448-0.036,0.896-0.12,1.334-0.244l59.244-108.479c-0.453-0.493-0.983-0.906-1.578-1.253
						l-36.781-21.24l-19.444-11.188c-0.552-0.32-1.151-0.547-1.761-0.707L-142.489-216.272z"/>
				</defs>
				<use xlink:href="#SVGID_7_"  overflow="visible" fill="#FF00FF"/>
				<clipPath id="SVGID_8_">
					<use xlink:href="#SVGID_7_"  overflow="visible"/>
				</clipPath>
				<g transform="translate(-78.306 -164.016)" clip-path="url(#SVGID_8_)">
					<path fill="#FF00FF" d="M23.992,218.333l111.766,151.27l147.813-109.208L171.798,109.129L23.992,218.333z"/>
				</g>
			</g>
		</g>
	</g>
	<g opacity="0.5">
		<g>
			<path id="SVGID_5_" fill="#FF00FF" d="M75.014,3.583C74.071,3.676,73.149,3.97,72.3,4.452L16.287,36.781l60.4,110.014
				c0.84-0.12,1.666-0.4,2.412-0.832l56.174-32.447c1.731-1.007,2.92-2.707,3.279-4.636L76.98,3.693
				c-0.453-0.089-0.906-0.136-1.375-0.136c-0.188,0-0.375,0.009-0.561,0.026"/>
		</g>
		<g>
			<g>
				<defs>
					<path id="SVGID_9_" d="M-81.598-324.449c-0.943,0.093-1.865,0.387-2.714,0.869l-56.013,32.329l60.4,110.014
						c0.84-0.12,1.666-0.4,2.412-0.832l56.174-32.448c1.733-1.006,2.92-2.707,3.28-4.635l-61.573-105.187
						c-0.453-0.089-0.906-0.136-1.374-0.136c-0.187,0-0.374,0.009-0.56,0.026"/>
				</defs>
				<use xlink:href="#SVGID_9_"  overflow="visible" fill="#FF00FF"/>
				<clipPath id="SVGID_10_">
					<use xlink:href="#SVGID_9_"  overflow="visible"/>
				</clipPath>
				<g transform="translate(-78.306 -164.016)" clip-path="url(#SVGID_10_)">
					<path fill="#FF00FF" d="M94.592,167.574v143.239h122.243V167.574H94.592z"/>
				</g>
			</g>
		</g>
	</g>
</g>
</svg>
