<?xml version="1.0" encoding="utf-8"?>
<!-- Generator: Adobe Illustrator 16.0.0, SVG Export Plug-In . SVG Version: 6.00 Build 0)  -->
<!DOCTYPE svg PUBLIC "-//W3C//DTD SVG 1.1//EN" "http://www.w3.org/Graphics/SVG/1.1/DTD/svg11.dtd">
<svg version="1.1" id="Layer_1" xmlns="http://www.w3.org/2000/svg" xmlns:xlink="http://www.w3.org/1999/xlink" x="0px" y="0px"
	 width="125px" height="125px" viewBox="0 0 125 125" enable-background="new 0 0 125 125" xml:space="preserve">
<g>
	<path fill="#00FF00" d="M9.944,62.498c0,20.803,12.089,38.779,29.619,47.299L14.494,41.11C11.578,47.646,9.944,54.88,9.944,62.498z
		"/>
	<path fill="#00FF00" d="M97.977,59.847c0-6.495-2.333-10.993-4.334-14.494c-2.664-4.329-5.161-7.995-5.161-12.324
		c0-4.831,3.664-9.328,8.825-9.328c0.232,0,0.453,0.029,0.681,0.042C88.637,15.177,76.18,9.946,62.499,9.946
		c-18.36,0-34.514,9.42-43.91,23.688c1.232,0.037,2.395,0.063,3.382,0.063c5.497,0,14.006-0.667,14.006-0.667
		c2.833-0.167,3.167,3.994,0.337,4.329c0,0-2.847,0.335-6.015,0.501l19.138,56.925l11.501-34.492L52.75,37.858
		c-2.83-0.166-5.512-0.501-5.512-0.501c-2.832-0.166-2.5-4.496,0.332-4.329c0,0,8.68,0.667,13.843,0.667
		c5.496,0,14.007-0.667,14.007-0.667c2.834-0.167,3.168,3.994,0.336,4.329c0,0-2.853,0.335-6.015,0.501l18.992,56.494l5.241-17.517
		C96.247,69.566,97.977,64.346,97.977,59.847z"/>
	<path fill="#00FF00" d="M63.42,67.096l-15.768,45.818c4.708,1.385,9.688,2.142,14.847,2.142c6.119,0,11.988-1.059,17.451-2.979
		c-0.141-0.225-0.269-0.464-0.374-0.724L63.42,67.096z"/>
	<path fill="#00FF00" d="M108.612,37.284c0.226,1.674,0.354,3.472,0.354,5.404c0,5.333-0.996,11.328-3.996,18.824l-16.053,46.413
		c15.623-9.111,26.133-26.038,26.133-45.427C115.051,53.362,112.717,44.771,108.612,37.284z"/>
	<path fill="#00FF00" d="M62.499,1.238c-33.779,0-61.263,27.481-61.263,61.26c0,33.783,27.483,61.264,61.263,61.264
		c33.777,0,61.265-27.48,61.265-61.264C123.762,28.72,96.276,1.238,62.499,1.238z M62.499,120.953
		c-32.23,0-58.453-26.223-58.453-58.455c0-32.229,26.222-58.45,58.453-58.45c32.229,0,58.449,26.221,58.449,58.45
		C120.948,94.73,94.728,120.953,62.499,120.953z"/>
</g>
</svg>
