<?xml version="1.0" encoding="utf-8"?>
<!-- Generator: Adobe Illustrator 16.0.0, SVG Export Plug-In . SVG Version: 6.00 Build 0)  -->
<!DOCTYPE svg PUBLIC "-//W3C//DTD SVG 1.1//EN" "http://www.w3.org/Graphics/SVG/1.1/DTD/svg11.dtd">
<svg version="1.1" id="Layer_1" xmlns="http://www.w3.org/2000/svg" xmlns:xlink="http://www.w3.org/1999/xlink" x="0px" y="0px"
	 width="130px" height="130px" viewBox="0 0 130 130" enable-background="new 0 0 130 130" xml:space="preserve">
<g>
	<path fill="#00FF00" d="M14.181,63.26c0,20.803,12.089,38.779,29.619,47.299L18.73,41.872
		C15.814,48.408,14.181,55.642,14.181,63.26z"/>
	<path fill="#00FF00" d="M102.213,60.608c0-6.495-2.333-10.993-4.334-14.494c-2.664-4.329-5.161-7.995-5.161-12.324
		c0-4.831,3.664-9.328,8.825-9.328c0.232,0,0.453,0.029,0.681,0.042c-9.351-8.565-21.808-13.796-35.488-13.796
		c-18.36,0-34.514,9.42-43.91,23.688c1.232,0.037,2.395,0.063,3.382,0.063c5.497,0,14.006-0.667,14.006-0.667
		c2.833-0.167,3.167,3.994,0.337,4.329c0,0-2.847,0.335-6.015,0.501l19.138,56.925l11.501-34.492L56.986,38.62
		c-2.83-0.166-5.512-0.501-5.512-0.501c-2.832-0.166-2.5-4.496,0.332-4.329c0,0,8.68,0.667,13.843,0.667
		c5.496,0,14.007-0.667,14.007-0.667c2.834-0.167,3.168,3.994,0.336,4.329c0,0-2.853,0.335-6.015,0.501L92.97,95.114l5.241-17.517
		C100.484,70.328,102.213,65.107,102.213,60.608z"/>
	<path fill="#00FF00" d="M67.656,67.857l-15.768,45.818c4.708,1.385,9.688,2.142,14.847,2.142c6.119,0,11.988-1.059,17.451-2.979
		c-0.141-0.225-0.269-0.464-0.374-0.724L67.656,67.857z"/>
	<path fill="#00FF00" d="M112.849,38.046c0.226,1.675,0.354,3.472,0.354,5.404c0,5.333-0.996,11.328-3.996,18.824l-16.053,46.413
		c15.623-9.111,26.133-26.038,26.133-45.427C119.287,54.124,116.953,45.532,112.849,38.046z"/>
	<path fill="#00FF00" d="M66.735,2C32.956,2,5.473,29.481,5.473,63.26c0,33.783,27.483,61.264,61.263,61.264
		c33.777,0,61.265-27.48,61.265-61.264C127.998,29.481,100.513,2,66.735,2z M66.735,121.715c-32.23,0-58.453-26.223-58.453-58.455
		c0-32.229,26.222-58.45,58.453-58.45c32.229,0,58.449,26.221,58.449,58.45C125.185,95.492,98.964,121.715,66.735,121.715z"/>
</g>
<g opacity="0.5" class="blur">
	<path fill="#00FFFF" d="M9.944,65.498c0,20.803,12.089,38.779,29.619,47.299L14.494,44.11C11.578,50.646,9.944,57.88,9.944,65.498z
		"/>
	<path fill="#00FFFF" d="M97.977,62.847c0-6.495-2.333-10.993-4.334-14.494c-2.664-4.329-5.161-7.995-5.161-12.324
		c0-4.831,3.664-9.328,8.825-9.328c0.232,0,0.453,0.029,0.681,0.042c-9.351-8.565-21.808-13.796-35.488-13.796
		c-18.36,0-34.514,9.42-43.91,23.688c1.232,0.037,2.395,0.063,3.382,0.063c5.497,0,14.006-0.667,14.006-0.667
		c2.833-0.167,3.167,3.994,0.337,4.329c0,0-2.847,0.335-6.015,0.501l19.138,56.925l11.501-34.492L52.75,40.858
		c-2.83-0.166-5.512-0.501-5.512-0.501c-2.832-0.166-2.5-4.496,0.332-4.329c0,0,8.68,0.667,13.843,0.667
		c5.496,0,14.007-0.667,14.007-0.667c2.834-0.167,3.168,3.994,0.336,4.329c0,0-2.853,0.335-6.015,0.501l18.992,56.494l5.241-17.517
		C96.248,72.566,97.977,67.346,97.977,62.847z"/>
	<path fill="#00FFFF" d="M63.42,70.096l-15.768,45.818c4.708,1.385,9.688,2.142,14.847,2.142c6.119,0,11.988-1.059,17.451-2.979
		c-0.141-0.225-0.269-0.464-0.374-0.724L63.42,70.096z"/>
	<path fill="#00FFFF" d="M108.612,40.284c0.226,1.675,0.354,3.472,0.354,5.404c0,5.333-0.996,11.328-3.996,18.824l-16.053,46.413
		c15.623-9.111,26.133-26.038,26.133-45.427C115.051,56.362,112.717,47.771,108.612,40.284z"/>
	<path fill="#00FFFF" d="M62.499,4.238c-33.779,0-61.263,27.481-61.263,61.26c0,33.783,27.483,61.264,61.263,61.264
		c33.777,0,61.265-27.48,61.265-61.264C123.762,31.72,96.276,4.238,62.499,4.238z M62.499,123.953
		c-32.23,0-58.453-26.223-58.453-58.455c0-32.229,26.222-58.45,58.453-58.45c32.229,0,58.449,26.221,58.449,58.45
		C120.948,97.73,94.728,123.953,62.499,123.953z"/>
</g>
</svg>
